# xmcd CD Database Entry
#
# Track frame offsets:
# 150
# 22458
# 49919
# 88741
# 107730
# 123672
# 143392
# 169910
# 191283
# 204153
#
# Disc length: 3029 seconds
#
# Revision: 4
# Processed by: cddbd v1.4PL0 Copyright (c) Steve Scherf et al.
# Submitted via: tcd 2.0b
#
DISCID=890bd30a
DTITLE=Warfaze/Obak Bhalobasha
DYEAR=1900
DGENRE=
TTITLE0=Ondho Jeebon
TTITLE1=Onno Bhoobon (Ekti Chele Kromosho)
TTITLE2=Obak Bhalobasha
TTITLE3=Bondee Niyoti
TTITLE4=Jokhon
TTITLE5=Keu Nei Eka
TTITLE6=Nirbashon
TTITLE7=Neel Shopon
TTITLE8=Ek and Ek <> Dui
TTITLE9=Shekhano Bornona
EXTD=
EXTT0=
EXTT1=
EXTT2=
EXTT3=
EXTT4=
EXTT5=
EXTT6=
EXTT7=
EXTT8=
EXTT9=
PLAYORDER=
